<svg width="28" height="28" viewBox="0 0 28 28" fill="none" xmlns="http://www.w3.org/2000/svg"><path d="M9.76 13.053a1.333 1.333 0 00.94 2.281 1.333 1.333 0 10-.94-2.28zm3.293 3.307a1.333 1.333 0 101.892 1.88 1.333 1.333 0 00-1.892-1.88zm12-13.333A8 8 0 0014 2.733 8 8 0 003.013 3a8 8 0 00-.253 11 8 8 0 005.907 13.333A7.893 7.893 0 0014 25.267 8 8 0 0025 25a8 8 0 00.24-11A8 8 0 0025 3l.053.027zm-1.946 1.866a5.333 5.333 0 01.227 7.187L15.92 4.667a5.427 5.427 0 017.187.226zM4.893 23.107a5.333 5.333 0 01-.226-7.187l7.466 7.467a5.44 5.44 0 01-7.24-.28zm18.214 0a5.44 5.44 0 01-7.52 0L4.92 12.44a5.333 5.333 0 010-7.52 5.333 5.333 0 017.52 0l10.667 10.667a5.334 5.334 0 010 7.52zM16.36 13.053a1.334 1.334 0 101.879 1.894 1.334 1.334 0 00-1.879-1.894zM13.054 9.76a1.333 1.333 0 101.893 1.88 1.333 1.333 0 10-1.893-1.88z" fill="#159EEC"/></svg>